<?xml version="1.0" encoding="UTF-8"?>
<svg id="Layer_1" xmlns="http://www.w3.org/2000/svg" version="1.1" viewBox="0 0 172.7 173.2">
  <!-- Generator: Adobe Illustrator 30.1.0, SVG Export Plug-In . SVG Version: 2.1.1 Build 136)  -->
  <path d="M170,141c0,15.4-12,29.6-27.7,29.6H30.4c-15.6,0-27.3-14.5-27.2-29.4V31.7c.2-15.6,13.8-28.2,29.2-28.2h107.9c16.2,0,29.6,12.8,29.7,29.2v108.3ZM31.8,159h23.5s0-143.6,0-143.6h-22c-9.8,0-17.8,6.9-18.4,16.9v108.4c-.2,9.7,7.1,18.3,16.9,18.3ZM158.2,141.5V32.8c-.5-9.9-8-17.4-18-17.4h-73.1s0,143.6,0,143.6h74.1c9.5,0,16.7-8.1,17-17.6Z"/>
  <path d="M45.4,62.9h-22c-3.3,0-6-2.7-6-6s2.7-6,6-6h22c3.3,0,6,2.7,6,6s-2.7,6-6,6Z"/>
  <path d="M45.4,80.5h-22c-3.3,0-6-2.7-6-6s2.7-6,6-6h22c3.3,0,6,2.7,6,6s-2.7,6-6,6Z"/>
  <path d="M45.4,98.5h-22c-3.3,0-6-2.7-6-6s2.7-6,6-6h22c3.3,0,6,2.7,6,6s-2.7,6-6,6Z"/>
</svg>
